<?xml version="1.0" encoding="utf-8"?>
<!-- Generator: Adobe Illustrator 16.0.0, SVG Export Plug-In . SVG Version: 6.00 Build 0)  -->
<!DOCTYPE svg PUBLIC "-//W3C//DTD SVG 1.1//EN" "http://www.w3.org/Graphics/SVG/1.1/DTD/svg11.dtd">
<svg version="1.1" id="Capa_1" xmlns="http://www.w3.org/2000/svg" xmlns:xlink="http://www.w3.org/1999/xlink" x="0px" y="0px"
	 width="283.465px" height="135.26px" viewBox="0 0 283.465 135.26" enable-background="new 0 0 283.465 135.26"
	 xml:space="preserve">
<path fill="#222221" d="M283.262,36.008c-0.132-0.61-0.632-1.073-1.251-1.158c0,0-12.034-4.781-52.57-5.865
	c-16.52-0.442-22.624-6.599-46.584-8.127c-26.288-1.676-34.968-8.134-64.943-8.924C100.75,11.481,86.56,8.916,79.574,6.665
	C63.998,1.646,31.672,0.083,31.672,0.083c-0.764-0.105-1.484,0.393-1.654,1.146c0,0-3.77,13.572-5.667,24.17
	c-0.296,1.652,0.883,2.565,0.699,4.01c-0.151,1.191-1.687,2.957-1.735,3.929C22.719,45.271,10.149,86.027,8.671,98.325
	c-0.168,1.395,0.625,4.57,0.333,6.187c-0.258,1.431-1.588,1.285-1.917,2.818c-2.565,11.988-6.883,26.046-6.883,26.046
	c-0.106,0.471,0.022,0.966,0.346,1.324c0.284,0.314,0.687,0.492,1.105,0.492c0.058,0,0.117-0.004,0.175-0.012
	c0,0,45.907-4.128,56.039-5.327c10.132-1.199,37.943-7.542,55.125-7.069c11.095,0.304,42.028-2.074,62.062-6.317
	c10.466-2.216,27.31-7.72,40.498-7.884c18.854-0.236,56.609-8.173,56.609-8.173c0.554-0.065,1.026-0.437,1.22-0.961
	s0.077-1.114-0.301-1.525c0,0-24.695-30.761-24.917-30.979c-0.53-0.521-0.429-1.493,0.436-2.04
	c0.224-0.141,34.002-27.323,34.002-27.323C283.131,37.248,283.395,36.619,283.262,36.008"/>
<path fill="#FFFFFF" d="M232.546,64.594c-1.486,0.266-2.853,1.133-4.161,2.637c-0.444,0.511-0.862,1.069-1.27,1.661
	c-0.45,0.654-1.474,0.554-1.688-0.157c-0.23-0.764-0.555-1.522-0.969-2.275c-2.648-4.804-3.067-7.14-3.826-11.382
	c-0.105-0.584-0.213-1.188-0.334-1.84c0,0-0.238-1.351-0.265-1.508c-0.05-0.304-0.315-0.405-0.492-0.392
	c-0.122,0.009-1.909,0.143-1.909,0.143c-3.486,0.582-5.485,5.112-8.511,11.97c-1.099,2.49-2.299,5.208-3.629,7.823l-0.011-0.004
	c-0.225,0.448-0.422,0.839-0.599,1.177c-0.206,0.389-1.063,1.926-1.12,2.013l-0.092,0.137c-1.487,2.312-3.936,3.388-5.441,3.092
	c-0.519-0.102-1.053-0.359-1.089-1.506c-0.043-1.357,0.771-3.7,1.558-5.966c0.424-1.223,0.862-2.488,1.216-3.723
	c0.756-2.643,0.615-4.682-0.427-6.231c-1.193-1.771-3.314-2.438-4.809-2.786c-1.247-0.291-2.124-0.496-2.818-0.659
	c-0.063-0.014-0.123-0.029-0.184-0.043c0.162-0.839,0.172-1.79-0.319-2.637c-0.713-1.229-2.025-1.468-2.521-1.558
	c-2.192-0.399-4.291,0.819-4.986,2.896c-0.324,0.968-0.203,2.079,0.334,3.048c0.333,0.603,0.8,1.11,1.369,1.501
	c-0.193,0.56-2.879,8.732-3.226,9.768c-1.556,4.666-4.458,8.017-8.172,9.434c-2.672,1.021-5.512,0.898-7.413-0.319
	c-0.257-0.165-0.498-0.339-0.727-0.521c-0.463-0.371-0.392-1.185,0.252-1.526c2.347-1.244,5.628-3.395,8.716-6.839
	c1.917-2.135,3.152-4.401,3.571-6.552c0.435-2.23-0.014-4.248-1.265-5.683c-1.11-1.274-2.769-1.971-4.669-1.964
	c-1.805,0.006-3.789,0.652-5.737,1.867c-2.097,1.306-4.103,3.461-5.647,6.068c-1.618,2.733-2.568,5.648-2.744,8.431
	c-0.137,2.152,0.199,4.14,0.999,5.905c0.096,0.214,0.199,0.422,0.31,0.628c0.274,0.516-0.074,1.172-0.637,1.349
	c-0.939,0.295-1.831,0.497-2.658,0.603c-2.271,0.288-3.563-0.219-4.245-0.696c-2.495-1.743-2.708-4.671-1.356-8.409
	c0.141-0.405,0.279-0.817,0.414-1.237c2.018-6.294,5.212-16.263,7.905-24.656c0.068-0.212,0.328-0.651,0.927-0.695
	c0,0,8.109-0.598,8.488-0.625c0.624-0.046,1.091,0.538,0.884,1.121c-0.041,0.116-0.979,2.755-1.429,4.022
	c-0.121,0.338,0.129,0.671,0.514,0.632l51.701-5.419c0.728-0.118,0.771-1.025-0.003-1.005c-16.741,0.447-43.934,1.173-44.212,1.18
	c-0.514,0.012-1.107-0.461-0.848-1.192c0.064-0.179,1.026-2.884,1.448-4.07c0.112-0.318-0.173-0.626-0.488-0.603l-13.906,1.024
	c-0.661,0.049-1.091-0.558-0.909-1.119c1.03-3.206,1.855-5.771,2.32-7.2c0.11-0.346-0.172-0.636-0.486-0.613l-4.083,0.301
	c-0.132,0.01-0.42,0.073-0.522,0.383c-0.573,1.765-1.492,4.618-2.591,8.04c-0.22,0.684-0.871,0.735-0.929,0.74
	c0,0-4.631,0.341-4.822,0.355c-0.205,0.015-0.425,0.149-0.505,0.412c-0.042,0.139-0.821,2.702-1.169,3.845
	c-0.096,0.318,0.15,0.632,0.5,0.605c0.085-0.006,3.838-0.282,3.838-0.282c0.679-0.05,1.08,0.578,0.905,1.126
	c-2.546,7.94-5.413,16.909-7.239,22.606c-1.635,5.1-3.552,7.97-4.873,9.48c-1.201,1.372-2.745,2.167-2.745,2.167
	c-2.333,1.278-4.971,1.491-6.772,1.445c-2.462-0.063-4.509-0.624-5.604-1.128c-0.229-0.105-0.443-0.217-0.643-0.332
	c-0.177-0.12-0.354-0.234-0.534-0.346c-0.389-0.282-0.693-0.585-0.899-0.897c-0.31-0.472-0.394-0.96-0.265-1.536
	c0.188-0.842,0.654-1.51,1.424-2.042c0.995-0.686,2.473-1.119,4.275-1.252c3.49-0.257,5.77-1.14,7.392-2.861
	c1.491-1.584,2.121-3.531,2.917-5.995l0.053-0.162c0.697-2.156,4.662-14.831,6.979-22.267c1.848-5.928-1.037-9.505-4.715-10.42
	c-2.031-0.505-4.344-0.217-6.345,0.79c-2.199,1.106-3.875,2.986-4.722,5.291c-0.4,1.091-8.959,28.104-9.943,31.208
	c-0.384,1.175-1.868,5.731-3.653,11.221c-0.208,0.376-0.67,0.886-1.469,1.393c-0.87,0.553-1.924,0.937-2.685,0.984
	c-1.465,0.089-2.016-0.362-2.333-0.767c-0.517-0.659-1.271-2.451-0.513-7.037c0.341-2.064,0.895-4.115,1.38-5.721
	c1.156-3.46,2.248-7.016,2.713-8.549c0.099-0.325-0.171-0.621-0.5-0.597l-4.06,0.299c-0.284,0.021-0.456,0.203-0.517,0.4
	c-0.408,1.328-0.978,3.158-1.624,5.151l-0.021-0.005c-0.183,0.558-0.434,1.321-0.708,2.225c-0.316,0.945-0.633,1.873-0.938,2.729
	c-1.649,4.636-4.042,8.351-5.228,10.025l-0.011-0.006c-1.488,2.312-3.935,3.387-5.442,3.092c-0.518-0.103-1.052-0.359-1.088-1.508
	c-0.042-1.354,0.771-3.698,1.557-5.964c0.425-1.224,0.864-2.487,1.217-3.724c0.756-2.643,0.616-4.681-0.427-6.23
	c-1.192-1.771-3.314-2.438-4.807-2.786c-1.245-0.291-2.121-0.496-2.815-0.659c-0.064-0.015-0.127-0.03-0.188-0.044
	c0.162-0.839,0.171-1.79-0.32-2.637c-0.712-1.229-2.025-1.467-2.519-1.557c-2.194-0.398-4.291,0.819-4.987,2.895
	c-0.325,0.969-0.204,2.079,0.333,3.048c0.333,0.602,0.8,1.109,1.369,1.5c-0.109,0.314-0.804,2.313-1.035,2.999
	c-0.244,0.723-1.209,3.244-3.39,5.332c-1.361,1.304-2.923,2.143-4.664,2.518c1.714-4.668,2.404-6.662,3.826-10.775
	c0.277-0.799,0.582-1.68,0.927-2.678c3.24-9.349,2.996-17.016-0.706-22.17c-3.063-4.267-8.336-6.511-15.248-6.493
	c-7.121,0.019-13.447,1.646-18.292,4.708c-4.696,2.966-7.792,7.177-8.721,11.855c-1.508,7.6,4.015,12.513,6.062,14.041
	c0.361,0.27,0.783,0.027,0.886-0.299l1.33-3.998c0.045-0.156,0.028-0.356-0.133-0.507c-1.701-1.584-4.107-4.63-3.3-8.694
	c0.66-3.327,2.851-6.25,6.337-8.451c3.983-2.517,9.328-3.855,15.458-3.872c5.406-0.014,9.274,1.548,11.497,4.644
	c2.831,3.941,2.886,10.18,0.163,18.04c-0.346,0.999-0.651,1.881-0.928,2.681c-1.488,4.302-2.167,6.266-4.079,11.458
	c-2.464,6.697-7.837,10.238-15.968,10.525c-3.893,0.137-6.88-1.463-9.732-3.104c0.134-0.336,0.263-0.677,0.383-1.021
	c0.249-0.714,9.126-27.57,9.189-27.781c0.114-0.377-0.216-0.626-0.482-0.607c-0.238,0.018-4.089,0.301-4.089,0.301
	c-0.15,0.012-0.416,0.082-0.518,0.402c-0.075,0.237-8.364,25.309-8.75,26.436c-1.651-0.709-3.393-1.164-5.308-1.022
	c-2.088,0.153-3.956,1.031-5.258,2.47c-1.17,1.294-1.817,2.935-1.822,4.621c-0.003,1.555,0.553,2.972,1.565,3.989
	c1.142,1.149,2.794,1.706,4.65,1.569c3.088-0.228,5.872-1.946,8.061-4.974c3.082,1.758,6.874,3.678,11.902,3.501
	c0.422-0.016,0.838-0.037,1.25-0.068c3.951-0.291,7.466-1.293,10.461-2.983c2.912-1.644,5.266-3.897,7.039-6.729
	c3.916-0.049,7.466-1.504,10.343-4.259c2.978-2.851,4.311-6.158,4.745-7.448c0.224-0.664,0.867-2.511,0.949-2.747
	c0.064,0.015,1.772,0.416,3.021,0.707c1.438,0.335,1.941,0.704,2.11,0.955c0.261,0.389,0.216,1.263-0.127,2.462
	c-0.315,1.103-0.731,2.301-1.133,3.46c-0.974,2.806-1.894,5.457-1.823,7.684c0.094,3.005,1.848,5.129,4.689,5.688
	c0.675,0.131,1.373,0.167,2.082,0.114c0.476-0.034,0.956-0.11,1.435-0.223v0.006c0.804-0.185,1.614-0.478,2.409-0.87
	c1.783-0.885,3.339-2.201,4.543-3.834c0.424-0.576,1.312-0.52,1.577,0.009c0.213,0.425,0.459,0.815,0.74,1.174
	c0.971,1.24,2.85,2.675,6.278,2.465c0.033-0.002,0.065-0.004,0.098-0.006c0.618-0.047,1.267-0.168,1.924-0.356
	c-1.325,4.076-3.593,10.993-4.015,12.407c-0.645,2.156-0.629,4.193,0.045,5.892c0.776,1.957,2.344,3.319,4.536,3.94
	c0.942,0.266,1.922,0.36,2.907,0.288c1.261-0.093,2.527-0.461,3.72-1.094c2.346-1.246,4.137-3.36,5.048-5.956
	c0.688-1.96,2.504-7.644,2.927-9.023l0.408-1.338c0.521-1.708,0.563-3.468,0.146-5.184c-0.146-0.602,0.375-1.198,1-1.204
	c0.48-0.002,0.954-0.022,1.423-0.056c2.617-0.193,5.051-0.864,7.136-1.977c0.648-0.273,2.14-1.048,3.9-2.91
	c0.184-0.193,0.366-0.395,0.546-0.601c0.429-0.494,1.212-0.499,1.536,0.027c0.571,0.928,1.303,1.711,2.18,2.323
	c1.761,1.229,4.084,1.765,6.762,1.568c0.275-0.021,0.554-0.049,0.836-0.085c2.128-0.27,4.431-0.964,6.869-2.068
	c0.29-0.131,0.602-0.116,0.841,0.01c1.415,0.756,3.074,1.208,4.847,1.316c2.07,0.126,4.258-0.224,6.322-1.012
	c2.454-0.938,4.747-2.501,6.63-4.522c2.075-2.229,3.67-4.989,4.745-8.209c0.353-1.058,3.027-9.197,3.132-9.501
	c0.064,0.014,1.769,0.415,3.021,0.706c1.437,0.335,1.94,0.705,2.108,0.956c0.262,0.388,0.218,1.262-0.126,2.462
	c-0.315,1.103-0.731,2.301-1.133,3.459c-0.975,2.808-1.895,5.457-1.824,7.686c0.095,3.003,1.849,5.127,4.69,5.685
	c0.659,0.13,1.356,0.166,2.07,0.113c1.255-0.092,2.566-0.461,3.834-1.09c1.878-0.931,3.506-2.343,4.733-4.098
	c0,0,0.74-1.099,1.628-2.779c1.679-3.181,3.163-6.497,4.487-9.498c0.516-1.167,1.017-2.302,1.5-3.355
	c0.365-0.8,1.546-0.803,1.775-0.002c0.604,2.112,1.501,4.325,3.137,7.292c1.196,2.168,1.134,4.285-0.168,5.811
	c-0.729,0.853-1.798,1.474-3.091,1.797c-1.402,0.35-3.266,0.25-4.69-0.066c-0.23-0.05-0.514,0.062-0.635,0.35l-1.331,3.654
	c-0.105,0.333,0.069,0.569,0.327,0.627c2.357,0.521,5.681,0.516,7.939,0.148c4.721-0.768,8.404-3.063,10.652-6.642
	c0.228-0.36,0.449-0.722,0.664-1.069c0.819-1.328,1.594-2.579,2.334-3.431c0.336-0.386,0.607-0.619,0.801-0.74
	c0.161-0.103,0.254-0.28,0.255-0.45l0.009-3.924C233.124,64.807,232.907,64.53,232.546,64.594 M127.041,69.139
	c3.754-11.845,8.83-27.819,9.137-28.68c0.699-1.907,2.321-2.704,3.7-2.805c0.415-0.031,0.809,0.002,1.147,0.087
	c1.792,0.446,2.364,2.168,1.567,4.725c-2.314,7.427-6.271,20.075-6.963,22.216l-0.053,0.162c-0.597,1.848-1.068,3.307-1.739,4.019
	c-0.381,0.405-1.194,0.964-3.85,1.16c-0.67,0.05-1.314,0.13-1.931,0.241C127.396,70.381,126.828,69.812,127.041,69.139
	 M36.618,87.977c-0.862,1.024-1.808,1.805-3.179,1.905c-0.859,0.064-1.562-0.305-1.56-1.134c0.002-0.466,0.178-0.926,0.484-1.265
	c0.367-0.404,0.922-0.638,1.649-0.692c0.777-0.057,1.574,0.102,2.404,0.401C36.764,87.319,36.817,87.739,36.618,87.977
	 M126.574,92.494l-0.409,1.338c-0.676,2.504-2.192,6.907-2.864,8.831c-0.468,1.339-1.352,2.408-2.485,3.009
	c-0.912,0.484-1.906,0.611-2.799,0.358c-0.826-0.233-1.357-0.675-1.625-1.349c-0.293-0.741-0.285-1.768,0.063-2.883
	c0.284-0.909,3.998-12.351,5.236-16.16c0.233-0.718,1.033-0.926,1.492-0.595c0.756,0.546,1.519,1.253,2.158,2.1
	C126.272,88.377,127.241,90.309,126.574,92.494 M163.489,71.453c0.512-4.141,3.343-8.245,5.833-9.796
	c1.008-0.629,1.969-0.982,2.733-1.039c0.596-0.043,1.071,0.093,1.357,0.421c0.342,0.394,0.448,1.085,0.288,1.899
	c-0.31,1.586-1.44,3.107-2.335,4.105c-2.266,2.524-4.66,4.208-6.488,5.257C164.229,72.672,163.389,72.253,163.489,71.453"/>
<path fill="#FFFFFF" d="M111.348,59.835c0.134-0.01,3.092-0.228,4.128-0.304c0.188-0.014,0.409-0.175,0.468-0.381
	c0,0,2.298-7.225,2.362-7.436c0.114-0.377-0.216-0.627-0.483-0.607c-0.237,0.018-4.089,0.302-4.089,0.302
	c-0.15,0.011-0.416,0.081-0.517,0.402c-0.442,1.392-2.318,7.3-2.347,7.391C110.748,59.583,111.031,59.858,111.348,59.835"/>
<path fill="#FFFFFF" d="M237.62,67.318c-0.014-0.057-0.026-0.12-0.038-0.188c-0.012-0.068-0.024-0.152-0.041-0.25
	c-0.016-0.087-0.033-0.158-0.056-0.215c-0.021-0.055-0.048-0.103-0.078-0.141c-0.028-0.038-0.064-0.069-0.107-0.093
	c-0.041-0.024-0.087-0.045-0.138-0.064c0.171-0.055,0.305-0.137,0.401-0.245c0.098-0.109,0.146-0.246,0.147-0.411
	c0-0.122-0.036-0.238-0.106-0.346c-0.072-0.109-0.178-0.182-0.321-0.221c-0.083-0.024-0.174-0.036-0.271-0.035
	c-0.097,0.001-0.216,0.008-0.354,0.018l-0.87,0.064l-0.007,2.584l0.478-0.035l0.003-1.157c0.123-0.01,0.229-0.015,0.315-0.018
	c0.088-0.002,0.161,0.007,0.224,0.027c0.062,0.02,0.109,0.057,0.145,0.11c0.036,0.052,0.064,0.128,0.084,0.227
	c0.004,0.015,0.009,0.042,0.014,0.08c0.006,0.038,0.013,0.078,0.019,0.12c0.005,0.042,0.012,0.081,0.018,0.117
	c0.005,0.036,0.01,0.061,0.014,0.077c0.021,0.11,0.04,0.19,0.061,0.243c0.019,0.052,0.034,0.087,0.046,0.106l0.543-0.04
	c-0.032-0.056-0.058-0.107-0.075-0.156C237.65,67.427,237.634,67.374,237.62,67.318 M237.02,66.116
	c-0.061,0.026-0.123,0.043-0.188,0.052s-0.121,0.015-0.17,0.018l-0.394,0.029l0.002-0.703l0.304-0.021
	c0.095-0.008,0.178-0.013,0.245-0.015c0.067-0.004,0.123-0.002,0.17,0.004c0.045,0.006,0.083,0.019,0.114,0.041
	c0.033,0.021,0.061,0.051,0.084,0.092c0.032,0.043,0.048,0.102,0.048,0.175c0,0.092-0.021,0.164-0.064,0.215
	C237.129,66.052,237.079,66.091,237.02,66.116"/>
<path fill="#FFFFFF" d="M238.751,65.455c-0.109-0.254-0.263-0.473-0.462-0.656c-0.197-0.184-0.434-0.323-0.707-0.417
	c-0.273-0.096-0.572-0.131-0.898-0.107c-0.301,0.023-0.586,0.098-0.855,0.227c-0.27,0.128-0.507,0.296-0.71,0.503
	c-0.203,0.207-0.364,0.447-0.484,0.72c-0.12,0.273-0.18,0.565-0.181,0.876c0,0.319,0.06,0.605,0.183,0.858
	c0.123,0.253,0.287,0.468,0.49,0.643c0.205,0.174,0.44,0.304,0.711,0.389c0.27,0.085,0.548,0.117,0.837,0.096
	c0.313-0.023,0.605-0.1,0.876-0.231c0.273-0.131,0.51-0.301,0.711-0.51c0.201-0.208,0.359-0.447,0.477-0.716
	c0.119-0.269,0.178-0.553,0.179-0.852C238.916,65.984,238.861,65.71,238.751,65.455 M238.462,67.037
	c-0.103,0.234-0.24,0.441-0.414,0.62c-0.173,0.18-0.377,0.327-0.611,0.439c-0.233,0.113-0.486,0.18-0.757,0.2
	c-0.266,0.02-0.516-0.01-0.749-0.088c-0.235-0.079-0.438-0.195-0.613-0.349s-0.313-0.341-0.412-0.56
	c-0.102-0.219-0.151-0.459-0.15-0.72c0-0.257,0.05-0.502,0.15-0.736c0.1-0.233,0.237-0.442,0.413-0.626
	c0.174-0.183,0.38-0.333,0.613-0.447c0.234-0.115,0.489-0.183,0.763-0.203c0.275-0.02,0.529,0.011,0.766,0.094
	c0.236,0.082,0.439,0.202,0.612,0.359c0.172,0.159,0.307,0.347,0.4,0.567c0.095,0.219,0.143,0.457,0.142,0.714
	C238.614,66.558,238.563,66.803,238.462,67.037"/>
</svg>